<?xml version="1.0" encoding="UTF-8"?>
<svg width="100px" height="100px" viewBox="0 0 100 100" version="1.1" xmlns="http://www.w3.org/2000/svg" xmlns:xlink="http://www.w3.org/1999/xlink">
    <title>blank</title>
    <g id="blank" stroke="none" stroke-width="1" fill="none" fill-rule="evenodd">
        <path d="M74.8390061,3.00088143 C82.5454187,3.02968992 85.4528865,3.76541573 88.3536605,5.31676663 C91.0823813,6.77610253 93.2238975,8.91761865 94.6832334,11.6463395 C96.2662445,14.606313 97,17.5732563 97,25.638852 L97,74.361148 C97,82.4267437 96.2662445,85.393687 94.6832334,88.3536605 C93.2238975,91.0823813 91.0823813,93.2238975 88.3536605,94.6832334 C85.393687,96.2662445 82.4267437,97 74.361148,97 L25.638852,97 C17.5732563,97 14.606313,96.2662445 11.6463395,94.6832334 C8.91761865,93.2238975 6.77610253,91.0823813 5.31676663,88.3536605 C3.76730688,85.4564226 3.03172426,82.5531407 3.00095416,74.8446456 L3.00088143,25.1609939 C3.02968992,17.4545813 3.76541573,14.5471135 5.31676663,11.6463395 C6.77610253,8.91761865 8.91761865,6.77610253 11.6463395,5.31676663 C14.5435774,3.76730688 17.4468593,3.03172426 25.1553543,3.00095416 Z" id="Rectangle" stroke="#B9B9B9" stroke-width="6" fill="#262626"></path>
        <g id="?" transform="translate(35.361328, 27.921875)" fill="#D1D1D1" fill-rule="nonzero">
            <path d="M0,12.7451172 C0.0807291667,8.89029948 1.41276042,5.80240885 3.99609375,3.48144531 C6.57942708,1.16048177 10.1516927,0 14.7128906,0 C19.031901,0 22.5083008,1.08984375 25.1420898,3.26953125 C27.7758789,5.44921875 29.0927734,8.29492188 29.0927734,11.8066406 C29.0927734,14.046875 28.5579427,15.9944661 27.4882812,17.6494141 C26.4186198,19.304362 24.7939453,20.7675781 22.6142578,22.0390625 C20.5960286,23.2096354 19.233724,24.2591146 18.5273438,25.1875 C17.8209635,26.1158854 17.4677734,27.3066406 17.4677734,28.7597656 L17.4677734,30.3642578 L9.4453125,30.3642578 L9.38476562,28.6992188 C9.18294271,26.3177083 9.51090495,24.3650716 10.3686523,22.8413086 C11.2263997,21.3175456 12.7148438,19.930013 14.8339844,18.6787109 C16.811849,17.508138 18.1539714,16.4637044 18.8603516,15.5454102 C19.5667318,14.6271159 19.9199219,13.4716797 19.9199219,12.0791016 C19.9199219,10.6663411 19.3901367,9.51090495 18.3305664,8.61279297 C17.2709961,7.71468099 15.8834635,7.265625 14.1679688,7.265625 C12.4322917,7.265625 11.0296224,7.76009115 9.95996094,8.74902344 C8.89029948,9.73795573 8.30501302,11.069987 8.20410156,12.7451172 L0,12.7451172 Z M17.7705078,43.6240234 C16.8017578,44.5322266 15.4697266,44.9863281 13.7744141,44.9863281 C12.0791016,44.9863281 10.7369792,44.527181 9.74804688,43.6088867 C8.75911458,42.6905924 8.26464844,41.4342448 8.26464844,39.8398438 C8.26464844,38.2454427 8.75911458,36.9840495 9.74804688,36.0556641 C10.7369792,35.1272786 12.0791016,34.6630859 13.7744141,34.6630859 C15.4697266,34.6630859 16.8068034,35.1272786 17.7856445,36.0556641 C18.7644857,36.9840495 19.2539062,38.2454427 19.2539062,39.8398438 C19.2539062,41.4342448 18.7594401,42.695638 17.7705078,43.6240234 Z" id="Shape"></path>
        </g>
    </g>
</svg>