<?xml version="1.0" encoding="UTF-8"?>
<svg width="100px" height="100px" viewBox="0 0 100 100" version="1.1" xmlns="http://www.w3.org/2000/svg" xmlns:xlink="http://www.w3.org/1999/xlink">
    <title>tag_sensor</title>
    <g id="tag_sensor" stroke="none" stroke-width="1" fill="none" fill-rule="evenodd">
        <path d="M74.8390061,3.00088143 C82.5454187,3.02968992 85.4528865,3.76541573 88.3536605,5.31676663 C91.0823813,6.77610253 93.2238975,8.91761865 94.6832334,11.6463395 C96.2662445,14.606313 97,17.5732563 97,25.638852 L97,74.361148 C97,82.4267437 96.2662445,85.393687 94.6832334,88.3536605 C93.2238975,91.0823813 91.0823813,93.2238975 88.3536605,94.6832334 C85.393687,96.2662445 82.4267437,97 74.361148,97 L25.638852,97 C17.5732563,97 14.606313,96.2662445 11.6463395,94.6832334 C8.91761865,93.2238975 6.77610253,91.0823813 5.31676663,88.3536605 C3.76730688,85.4564226 3.03172426,82.5531407 3.00095416,74.8446456 L3.00088143,25.1609939 C3.02968992,17.4545813 3.76541573,14.5471135 5.31676663,11.6463395 C6.77610253,8.91761865 8.91761865,6.77610253 11.6463395,5.31676663 C14.5435774,3.76730688 17.4468593,3.03172426 25.1553543,3.00095416 Z" id="Rectangle" stroke="#778CFF" stroke-width="6" fill="#262626"></path>
        <circle id="Oval" stroke="#778CFF" stroke-width="8" cx="50" cy="50" r="20"></circle>
    </g>
</svg>